<?xml version="1.0" standalone="no"?>
<!DOCTYPE svg PUBLIC "-//W3C//DTD SVG 20010904//EN"
 "http://www.w3.org/TR/2001/REC-SVG-20010904/DTD/svg10.dtd">
<svg version="1.0" xmlns="http://www.w3.org/2000/svg"
 width="174.000000pt" height="174.000000pt" viewBox="0 0 174.000000 174.000000"
 preserveAspectRatio="xMidYMid meet">
<metadata>
Created by potrace 1.15, written by Peter Selinger 2001-2017
</metadata>
<g transform="translate(0.000000,174.000000) scale(0.100000,-0.100000)"
fill="#000000" stroke="none">
<path d="M784 1547 c-41 -23 -71 -71 -80 -129 -8 -48 30 -102 75 -106 33 -3
56 14 97 75 22 31 22 104 1 136 -28 43 -48 49 -93 24z"/>
<path d="M1245 1395 c-5 -2 -73 -22 -150 -45 -238 -70 -442 -152 -667 -267
-161 -83 -188 -103 -169 -127 7 -8 10 -20 6 -26 -8 -13 11 -13 38 2 12 6 35
15 52 19 16 4 86 32 155 62 161 70 505 192 597 212 10 2 62 16 115 31 110 31
117 41 87 104 -18 37 -33 46 -64 35z"/>
<path d="M1331 1224 c-41 -13 -78 -21 -82 -19 -4 3 -9 1 -11 -4 -1 -5 -79 -34
-173 -66 -165 -54 -204 -72 -178 -82 6 -2 46 -37 87 -77 l75 -73 28 16 c15 9
66 34 113 55 303 139 290 132 281 163 -11 39 -37 87 -53 100 -9 7 -35 3 -87
-13z"/>
<path d="M1585 1024 c-27 -7 -55 -12 -62 -9 -6 2 -13 0 -15 -5 -2 -5 -19 -11
-38 -14 -37 -5 -187 -45 -280 -74 -30 -9 -59 -18 -65 -18 -25 -4 -55 -17 -55
-24 0 -4 9 -15 19 -24 26 -24 71 -138 71 -181 0 -19 1 -35 3 -35 1 1 45 16 97
34 l95 34 -2 41 -2 41 66 20 c36 11 69 18 73 15 5 -3 10 0 12 5 2 6 14 12 28
14 14 2 32 6 40 9 8 3 34 11 58 17 42 11 42 11 42 56 0 38 -22 116 -32 113 -2
0 -25 -7 -53 -15z"/>
<path d="M450 882 c-333 -167 -370 -188 -370 -218 0 -31 26 -94 39 -94 5 0 31
9 58 21 61 27 153 59 153 54 0 -2 -60 -36 -132 -74 -179 -94 -173 -90 -159
-134 7 -20 21 -47 32 -61 l20 -25 97 46 c193 91 315 144 333 146 11 1 19 5 19
10 0 5 38 105 85 222 47 117 85 215 85 219 0 15 -39 -2 -260 -112z"/>
<path d="M812 717 c-23 -51 -64 -130 -90 -177 -50 -90 -58 -95 -127 -77 -11 3
-23 6 -27 6 -4 1 -14 9 -23 18 -16 16 -20 15 -62 -7 -25 -13 -47 -30 -50 -37
-9 -22 6 -79 27 -101 l20 -21 122 62 c68 34 182 90 255 124 l132 63 -16 52
c-21 73 -46 118 -85 155 l-33 32 -43 -92z"/>
</g>
</svg>
